<?xml version="1.0" encoding="UTF-8" standalone="no"?>
<!-- Created with Inkscape (http://www.inkscape.org/) -->

<svg
   xmlns:osb="http://www.openswatchbook.org/uri/2009/osb"
   xmlns:dc="http://purl.org/dc/elements/1.1/"
   xmlns:cc="http://creativecommons.org/ns#"
   xmlns:rdf="http://www.w3.org/1999/02/22-rdf-syntax-ns#"
   xmlns:svg="http://www.w3.org/2000/svg"
   xmlns="http://www.w3.org/2000/svg"
   xmlns:sodipodi="http://sodipodi.sourceforge.net/DTD/sodipodi-0.dtd"
   xmlns:inkscape="http://www.inkscape.org/namespaces/inkscape"
   width="105.71875"
   height="170.875"
   id="svg2"
   version="1.1"
   inkscape:version="0.92.4 (5da689c313, 2019-01-14)"
   sodipodi:docname="child.svg">
  <defs
     id="defs4">
    <linearGradient
       id="linearGradient6095"
       osb:paint="solid">
      <stop
         style="stop-color:#00a200;stop-opacity:1;"
         offset="0"
         id="stop6097" />
    </linearGradient>
  </defs>
  <sodipodi:namedview
     id="base"
     pagecolor="#ffffff"
     bordercolor="#666666"
     borderopacity="1.0"
     inkscape:pageopacity="0.0"
     inkscape:pageshadow="2"
     inkscape:zoom="2.8"
     inkscape:cx="12.330357"
     inkscape:cy="82.301363"
     inkscape:document-units="px"
     inkscape:current-layer="layer1"
     showgrid="false"
     inkscape:window-width="1383"
     inkscape:window-height="856"
     inkscape:window-x="521"
     inkscape:window-y="179"
     inkscape:window-maximized="0"
     fit-margin-top="0"
     fit-margin-left="0"
     fit-margin-right="0"
     fit-margin-bottom="0" />
  <metadata
     id="metadata7">
    <rdf:RDF>
      <cc:Work
         rdf:about="">
        <dc:format>image/svg+xml</dc:format>
        <dc:type
           rdf:resource="http://purl.org/dc/dcmitype/StillImage" />
        <dc:title></dc:title>
        <dc:subject>
          <rdf:Bag>
            <rdf:li>simple</rdf:li>
          </rdf:Bag>
        </dc:subject>
      </cc:Work>
    </rdf:RDF>
  </metadata>
  <g
     inkscape:label="Layer 1"
     inkscape:groupmode="layer"
     id="layer1"
     transform="translate(-329.80619,-428.83542)">
    <path
       style="fill:#000000;fill-opacity:1;fill-rule:nonzero;stroke:none;stroke-width:0.72638923"
       d="m 384.43119,509.54971 c -11.73605,0 -21.25,5.01995 -21.25,11.21237 0,4.84324 5.81776,8.96833 13.96875,10.53634 l -0.90625,3.13287 -16.78125,0.18138 -25.71875,13.57028 -3.9375,4.13868 6.78125,4.15518 10.375,-1.69835 12.125,-9.05234 4.5,17.57705 -7.34375,22.83697 0.25,11.01452 1.5,2.4898 12.15625,0.066 2.5,-1.69835 1.8125,-12.06979 7.84375,-16.38986 5.34375,17.14834 0.71875,10.93207 2.15625,1.69835 11.1875,0.13191 3.25,-1.26964 0.1875,-14.13089 -2.34375,-20.87481 4.15625,-18.02225 12.125,7.73324 8.21875,3.19883 8.21875,-3.77594 -3.5625,-5.63916 -23.9375,-12.25118 -15.375,-0.5771 -0.90625,-2.55577 c 8.13668,-1.57197 13.9375,-5.6985 13.9375,-10.53634 0,-6.19242 -9.51395,-11.21237 -21.25,-11.21237 z"
       id="path6146"
       inkscape:connector-curvature="0" />
  </g>
</svg>
