<?xml version="1.0" encoding="UTF-8" standalone="no"?>
<!-- Created with Inkscape (http://www.inkscape.org/) -->

<svg
   xmlns:osb="http://www.openswatchbook.org/uri/2009/osb"
   xmlns:dc="http://purl.org/dc/elements/1.1/"
   xmlns:cc="http://creativecommons.org/ns#"
   xmlns:rdf="http://www.w3.org/1999/02/22-rdf-syntax-ns#"
   xmlns:svg="http://www.w3.org/2000/svg"
   xmlns="http://www.w3.org/2000/svg"
   xmlns:sodipodi="http://sodipodi.sourceforge.net/DTD/sodipodi-0.dtd"
   xmlns:inkscape="http://www.inkscape.org/namespaces/inkscape"
   width="105.71875"
   height="170.875"
   id="svg2"
   version="1.1"
   inkscape:version="0.92.4 (5da689c313, 2019-01-14)"
   sodipodi:docname="zombie_killer.svg">
  <defs
     id="defs4">
    <linearGradient
       id="linearGradient6095"
       osb:paint="solid">
      <stop
         style="stop-color:#00a200;stop-opacity:1;"
         offset="0"
         id="stop6097" />
    </linearGradient>
  </defs>
  <sodipodi:namedview
     id="base"
     pagecolor="#ffffff"
     bordercolor="#666666"
     borderopacity="1.0"
     inkscape:pageopacity="0.0"
     inkscape:pageshadow="2"
     inkscape:zoom="2.8"
     inkscape:cx="12.330357"
     inkscape:cy="82.301363"
     inkscape:document-units="px"
     inkscape:current-layer="layer1"
     showgrid="false"
     inkscape:window-width="1383"
     inkscape:window-height="856"
     inkscape:window-x="521"
     inkscape:window-y="179"
     inkscape:window-maximized="0"
     fit-margin-top="0"
     fit-margin-left="0"
     fit-margin-right="0"
     fit-margin-bottom="0" />
  <metadata
     id="metadata7">
    <rdf:RDF>
      <cc:Work
         rdf:about="">
        <dc:format>image/svg+xml</dc:format>
        <dc:type
           rdf:resource="http://purl.org/dc/dcmitype/StillImage" />
        <dc:title></dc:title>
        <dc:subject>
          <rdf:Bag>
            <rdf:li>simple</rdf:li>
          </rdf:Bag>
        </dc:subject>
      </cc:Work>
    </rdf:RDF>
  </metadata>
  <g
     inkscape:label="Layer 1"
     inkscape:groupmode="layer"
     id="layer1"
     transform="translate(-329.80619,-428.83542)">
    <g
       id="g4522"
       transform="matrix(0.70336721,0,0,1,129.19098,0)">
      <path
         inkscape:connector-curvature="0"
         id="path6146"
         transform="translate(282.30619,422.27292)"
         d="m 102.125,6.5625 c -11.73605,0 -21.25,9.51395 -21.25,21.25 0,9.179039 5.81776,16.997003 13.96875,19.96875 L 93.9375,53.71875 77.15625,54.0625 51.4375,79.78125 47.5,87.625 l 6.78125,7.875 10.375,-3.21875 12.125,-17.15625 4.5,33.3125 -7.34375,43.28125 0.25,20.875 1.5,4.71875 12.15625,0.125 2.5,-3.21875 1.8125,-22.875 7.84375,-31.0625 5.34375,32.5 0.71875,20.71875 2.15625,3.21875 11.1875,0.25 3.25,-2.40625 0.1875,-26.78125 -2.34375,-39.5625 4.15625,-34.15625 12.125,14.65625 8.21875,6.0625 8.21875,-7.15625 -3.5625,-10.6875 -23.9375,-23.21875 -15.375,-1.09375 -0.90625,-4.84375 c 8.13668,-2.979239 13.9375,-10.799961 13.9375,-19.96875 0,-11.73605 -9.51395,-21.25 -21.25,-21.25 z"
         style="fill:#000000;fill-opacity:1;fill-rule:nonzero;stroke:none" />
      <path
         inkscape:connector-curvature="0"
         id="path10"
         d="m 327.67673,499.55417 c 0,0 -33.92857,-20.71428 -38.21429,-34.28571 -4.28571,-13.57143 -3.92857,-13.57143 -3.92857,-13.57143 l 14.64286,7.5 28.57143,38.21428 5,-10.71428 c 0,0 15.35714,-0.33929 6.78571,6.61607 -8.57143,6.95536 -8.92857,6.95536 -8.92857,6.95536 l 15.35714,14.28571 -6.78571,6.07143 -12.14286,-17.14286 -10.35714,13.92857 -4.64286,-8.57142 z"
         style="fill:#000000;stroke:#000000;stroke-width:1px;stroke-linecap:butt;stroke-linejoin:miter;stroke-opacity:1" />
    </g>
  </g>
</svg>
